<svg xmlns="http://www.w3.org/2000/svg" viewBox="0 0 69.903 20"><defs><style>.a{fill:#fff;}.a,.b{fill-rule:evenodd;}.b{fill:#ffab40;}</style></defs><g transform="translate(-0.688 -0.331)"><path class="a" d="M46.411,18.456a2.439,2.439,0,0,0,.82-.151l.639,2.179a3.6,3.6,0,0,1-2.067.474,4.138,4.138,0,0,1-2.57-.905,3.609,3.609,0,0,1-1.2-3V12.594H40.366V10.1h1.668V7.808L45.1,6.864V10.1H46.72v2.5H45.1v3.945C45.1,17.854,45.406,18.456,46.411,18.456ZM34.868,22.424a.891.891,0,0,1-1.164.493L24.03,19.406a.887.887,0,0,1-.573-1.124L27.842,6.264a.891.891,0,0,1,1.164-.493l9.673,3.511a.887.887,0,0,1,.574,1.124Zm-2.14-11.549a4.52,4.52,0,0,0-6.133,2.891,4.461,4.461,0,0,0,2.956,6.028,5.439,5.439,0,0,0,4.038-.026l-.9-1.951a4.229,4.229,0,0,1-2.564-.136,1.8,1.8,0,0,1-1.221-2.174L34.957,17.7a6.191,6.191,0,0,0,.48-1.007A4.294,4.294,0,0,0,32.727,10.875ZM29.6,13.735a1.842,1.842,0,0,1,2.4-.823,1.592,1.592,0,0,1,1.161,2.12Zm-5.924,7.249H19.916l-2.058-2.84-.742,1.025V21H13.987V5.065h3.129v8.909l2.8-3.872h3.76l-3.94,5.444ZM10.586,9.024a1.539,1.539,0,1,1,.041-3.072,1.54,1.54,0,1,1-.041,3.072ZM6.127,20.958a4.136,4.136,0,0,1-2.57-.905,3.609,3.609,0,0,1-1.2-3V12.594H.688V10.1H2.357V7.808l3.068-.944V10.1H7.043v2.5H5.424v3.945c0,1.315.3,1.917,1.31,1.917a2.442,2.442,0,0,0,.821-.151l.639,2.179A3.592,3.592,0,0,1,6.127,20.958ZM12.145,21H9.087V10.1h3.057Z" transform="translate(0 -2.646)"/><path class="b" d="M100.354,18.338H96.59L94.532,15.5l-2.055,2.84H88.717L92.65,12.9,88.7,7.456h3.764L94.532,10.3l2.061-2.848h3.76L96.413,12.9Zm-15.245.012.008-1s-.665.984-3.034.984c-2.235,0-3.864-2.038-3.864-4.481v-6.4h3.088v5.862c0,1.582.863,2.417,2.07,2.417,1.483,0,1.75-1.753,1.75-1.322V7.452H88.2l-.013,10.9Zm-29.258-8.1c-1.665-1.821-.571-5.373,1.661-6.668a8.078,8.078,0,0,0,3.137,3.544A5.109,5.109,0,0,0,55.851,10.25ZM53.97,5.086a2.09,2.09,0,0,0-.031-2.978L56.166.331S58.449,4.008,53.97,5.086Z" transform="translate(-29.764 0)"/></g></svg>